<mxfile host="app.diagrams.net" modified="2023-11-06T08:30:09.141Z" agent="Mozilla/5.0 (Windows NT 10.0; Win64; x64) AppleWebKit/537.36 (KHTML, like Gecko) Chrome/118.0.0.0 Safari/537.36 Edg/118.0.2088.76" version="22.0.8" etag="Vx9AF44omD6fG9xGI9m6" type="github">
  <diagram name="Page-1" id="mTdVV8BhJ2NAsWEZkrfa">
    <mxGraphModel>
      <root>
        <mxCell id="0" />
        <mxCell id="1" parent="0" />
      </root>
    </mxGraphModel>
  </diagram>
</mxfile>
